<?xml version="1.0" encoding="utf-8"?>
<!-- Generator: Adobe Illustrator 21.1.0, SVG Export Plug-In . SVG Version: 6.00 Build 0)  -->
<svg version="1.1" id="Layer_1" xmlns="http://www.w3.org/2000/svg" xmlns:xlink="http://www.w3.org/1999/xlink" x="0px" y="0px"
	 viewBox="0 0 934 96" style="enable-background:new 0 0 934 96;" xml:space="preserve">
<style type="text/css">
	.st0{fill:#446CB3;}
</style>
<g>
	<g>
		<g>
			<g>
				<g>
					<path class="st0" d="M61.1,66.2L61.1,66.2l-0.4,0.1l-0.1,0.1h-0.4L60,66.5h-0.2c-0.1,0.1-0.3,0.1-0.7,0.1l-0.2,0.1h-0.4
						c-2.9,0-4.4-1.2-4.4-3.5v-40c1.4-0.5,2.6-1.4,3.6-2.8s1.5-3,1.5-4.7c-1.6,0.8-2.7,1.2-3.2,1.2c-0.7,0-1.3-0.1-1.9-0.4
						c-2.6-1-4.7-3-6.2-6l-10.5,6.6c1.1,4.5,3.9,5.6,5.3,6v9.3v2V38v10.3v3.6V59v4.2c-1.1,0.7-2.3,1.5-3.5,2.3s-2.5,1.7-3.8,2.6
						c0,0-3.1-3.3-9.7-4.4V25.8c0-3.9-1.2-7.1-3.5-9.9c-2.4-2.7-5.8-4.1-9.4-4.4l0,0c-2.1,0-4,0.4-5.7,1.1c-2.3,1.1-4.1,3-5.4,5.7
						c-1.4,2.8-2,5.7-2,8.9c0.5-0.5,0.8-0.9,0.9-1c0.2,0,0.3-0.2,0.4-0.3H0.9c0.1-0.1,0.2-0.3,0.3-0.4c2.1-2.9,4.7-4.4,7.7-4.4
						c2.3,0,4.2,1.1,5.5,3.3c0.5,0.9,0.8,1.5,0.8,1.8v11H15c-1.4,0.3-2.7,0.5-3.9,0.6c-3.7,1.3-5.6,4-5.6,8c0,1.5,0.5,2.7,1.4,3.8
						s2.1,1.6,3.4,1.6v-1h-0.1c0.1-0.7,0.5-1.2,1.1-1.6c0.6-0.4,1.3-0.6,2-0.6l0.1-0.1c0.3,0,0.4,0,0.5,0.1c0.3,0.1,0.8,0.3,1.3,0.7
						v15.9c-5.6,2.1-9.1,5.7-10.5,10.8c0.4,0,0.6,0,0.7,0s0.2-0.1,0.3-0.2L6.1,75l0.1-0.1h0.1c3.4-1.4,6.1-2.1,8-2.1
						c4.3,0,9.4,1.7,15.3,5.2c1.5-1.9,3.8-3.8,6.8-5.9c0.9-0.7,2-1.4,3.1-2.1c1.1-0.8,2.4-1.6,3.7-2.5c0.1,0.2,0.1,0.4,0.2,0.6
						c0.1,0.2,0.2,0.5,0.3,0.8c2.4,5.9,5.6,8.9,9.5,9.1l9.2-11.6h-1.3V66.2z"/>
				</g>
			</g>
			<g>
				<g>
					<path class="st0" d="M39.2,20.8C39.2,20.8,39.2,20.9,39.2,20.8C39.2,20.9,39.2,20.8,39.2,20.8z"/>
				</g>
			</g>
		</g>
		<g>
			<g>
				<rect x="39" y="17.1" class="st0" width="1.5" height="51.2"/>
			</g>
		</g>
	</g>
	<g>
		<path class="st0" d="M100.8,78.8c-1-0.1-2-0.3-2.9-0.7c-1-0.4-1.9-1-2.8-1.7c-1.7-1.3-2.5-3-2.5-4.9V43.9c-0.3,0-0.5,0-0.6-0.1
			h-0.2l-0.1-0.1l-0.4-0.2h0.1c-1.1-0.3-2-0.7-2.7-1.2s-1.3-1.1-1.9-1.9l-4.3,3.5v22c0.8,0.4,1.6,0.7,2.3,1c0.7,0.4,1.3,0.7,1.7,1
			c0.8,0.5,1.5,1,2,1.6c0.6,0.6,1.1,1.2,1.6,1.8l-9.8,7c-3.8-3.6-7.6-5.4-11.5-5.4h-0.3L68.4,73h-0.5l-0.1,0.1h-0.4l-0.1,0.1h-1
			c0.6-2.7,2.2-4.9,4.9-6.5V43.4c-1.3-2.1-3-3.1-5.2-3.1l-0.2-0.1H65v-0.7l10.7-10.7c1.1,1,2.1,1.9,2.9,2.7c0.8,0.8,1.5,1.6,1.9,2.4
			c1.1,1.7,1.7,3.6,1.8,5.6l12.4-10.4c2.9,4.1,5.2,6.1,6.8,6.1c0.8,0,2.6-0.6,5.3-1.8v1.5l-0.1,0.2v1l-0.1,0.2
			c0,1.7-0.9,3.5-2.8,5.3V66c0,1.4,1,2.1,3.1,2.1h0.4l0.1-0.1h0.8l0.1-0.1h1.4L100.8,78.8z"/>
		<path class="st0" d="M151.7,36.5l-0.2,0.2l-0.1,0.2c-0.1,0.1-0.3,0.3-0.4,0.4c-0.1,0.1-0.2,0.3-0.4,0.4v0.2
			c-0.4,0.6-0.7,1-0.7,1.5v30c0,0.1,0,0.2,0.1,0.3v0.2l0.1,0.3v-0.1c0.1,0.1,0.1,0.1,0.1,0.2l0.1,0.5l0.1,0.1c0,0.3,0,0.5,0.1,0.5
			l0.1,0.2v0.1l0.1,0.1c0,0.1,0,0.3,0.1,0.4l0.7,1.5c-2.2-1.3-4.8-2-7.7-2c-5.9,0-10.8,2.3-14.5,6.8l-0.9-0.8
			c-0.1-0.1-0.3-0.3-0.4-0.4c-0.1-0.1-0.2-0.3-0.4-0.4c-2.9-3.4-6.3-5-10.2-5c-2.3,0-4.4,0.7-6.2,2c0.6-3.8,2.5-6.5,5.7-8.1v-25
			c0-1.1-0.7-2.7-2.1-4.6h1.3l0.2,0.1h1.3l0.2,0.1h0.3c5.2,0,9.5-1.2,13-3.7l-4.4-4.8c-1.2-1.3-2.4-2.5-3.7-3.7
			c-1.3-1.2-2.5-2.3-3.8-3.3c-0.3-0.2-0.7-0.5-1.2-0.9s-1.1-0.9-1.7-1.4c-0.9-0.8-2.5-2.4-4.7-5v-1.5c0.6,0.6,1.3,0.9,1.9,0.9
			c0.1,0.1,0.5,0.1,1.2,0.1c1.8,0,3.6-0.2,5.5-0.7c1.8-0.5,3.6-1.2,5.4-2.1c0.5,1.5,1.4,3.1,2.7,4.9v-0.1l2.6,2.6l10.9,10.8
			c0.1,0.3,0.2,0.4,0.2,0.3l2.4,2.5c0.3,0.3,0.6,0.6,0.9,0.9c0.3,0.4,0.8,0.7,1.3,1.2c0.1,0.1,0.3,0.3,0.5,0.4
			c0.2,0.1,0.3,0.3,0.5,0.4h-0.1c1.1,1,2.2,1.6,3.4,1.6l0.8-1L151.7,36.5L151.7,36.5z M138.4,68.5V39.7l-4.2-4.3
			c-1.9,1.8-4,3-6.3,3.5v25.6l0.7,0.2c0.2,0.1,0.6,0.2,1,0.3c0.5,0.1,1.2,0.3,2.1,0.6c2,1,3.6,2.2,5,3.6l0.2-0.2h0.1l0.2-0.2h0.3
			l0.1-0.1h0.5L138.4,68.5z M150.5,37.9v-0.2v0.1C150.5,37.9,150.5,37.9,150.5,37.9z M150.6,37.9c0-0.1,0.1-0.2,0.2-0.3l-0.2,0.4
			V37.9z"/>
		<path class="st0" d="M186.9,47c-0.8,0.4-2.5,1.3-5,2.8c-2.5,1.4-5.9,3.4-10.1,5.9c-0.6,0.4-1.3,0.8-2.1,1.4V65
			c2.2,0.4,4.2,0.8,6,1.4c1.9,0.6,3.6,1.2,5.2,2l2.5-2.6l2.6,2.4l-9.5,10.5l-1-0.5c-1.5-0.8-2.9-1.5-4.3-2.2c-1.4-0.7-3-1.2-4.8-1.5
			c-3.1-0.6-5.7-0.9-8-0.9c-0.8,0-1.7,0.1-2.5,0.2s-1.7,0.2-2.5,0.4c0.1-0.3,0.3-0.6,0.4-0.9c0.1-0.2,0.3-0.4,0.4-0.6v0.1
			c0.5-0.8,0.9-1.4,1.2-1.9s0.5-0.8,0.6-0.8c0.5-0.6,1.4-1.5,2.8-2.5V41.9c0-1-0.6-2.8-1.7-5.2v-1.5l0.9,0.9h0.6l0.1,0.1h0.3
			l0.3,0.1h0.4c5.5,0,11.7-2.3,18.7-6.9c0.3,1.3,0.8,2.6,1.4,4.1c0.6,1.5,1.3,3.1,2.3,4.9c0.9,1.6,1.8,3.1,2.6,4.5s1.6,2.5,2.3,3.5
			L186.9,47z M171.7,41.6c-0.4-1-0.8-2-1.2-2.9l-0.8,0.2v13.4l5.7-3.7c-0.3-0.4-0.6-1-1-1.6c-0.4-0.7-0.8-1.5-1.3-2.6
			C172.6,43.5,172.1,42.6,171.7,41.6z"/>
		<path class="st0" d="M221,43c-1.6,1.7-3.7,2.6-6.2,2.6c-2,0-4-0.9-5.9-2.7l-2.8,2.9v18.9c0.1,0.1,0.3,0.1,0.6,0.2s0.6,0.1,0.9,0.2
			h-0.1c1.4,0.1,2.8,0.9,4.3,2.4l1.9-1.9l2.3,2.5l-10.8,10.5c-3.9-3.7-7.6-5.6-11-5.6c-0.7,0-1.3,0.1-1.8,0.3
			c-0.5,0.2-1.1,0.3-1.6,0.5l-1.4,0.5c0-2.2,1.1-4.3,3.3-6.5c0.4-0.4,0.8-0.7,1.1-0.9c0.3-0.2,0.6-0.4,0.8-0.5l-0.2,0.1l0.3-0.3h0.3
			l0.1-0.1V44.3c-0.5-0.7-1-1.3-1.6-1.7c-0.6-0.5-1.3-0.9-2-1.2c-0.2-0.1-0.5-0.2-0.9-0.3c-0.1-0.1-0.4-0.2-0.9-0.3s-0.8-0.2-1-0.3
			c4.3-2.5,7.7-6.2,10.2-10.9c3.7,1.9,6.2,5.2,7.3,10.1l0.9-1.3c0.3-0.3,0.7-0.7,1-1.1c0.3-0.4,0.7-0.8,1.2-1.3
			c1.3-1.3,2.8-3.3,4.4-5.8V30l0.8-0.1c1.3,4,3.1,6,5.6,6c0.8,0,2-0.6,3.4-1.9v2.4C223.4,39,222.6,41.2,221,43z"/>
	</g>
</g>
<g>
	<path class="st0" d="M297.3,17.3c-0.2,0.8-0.6,1.7-1.1,2.6c-0.6,0.9-1.2,1.8-1.9,2.5c-0.7,0.8-1.5,1.5-2.3,2.1s-1.7,1.1-2.5,1.4
		v36.8c1.2-0.9,3.1-3.1,5.6-6.4c0,10.4-5.3,17.7-16,21.7c-3.3,1.2-6.4,1.9-9.1,1.9c-4.3,0-7.8-0.5-10.6-1.6
		c-4.8-1.9-8.5-4.8-11.1-8.6c-2.7-3.8-4-8.3-4-13.5v-0.4l0.1-0.1c0-7,2.2-13.5,6.6-19.4c3.3-4.7,7.3-7.3,12.1-7.9c-6,6.7-9,13-9,19
		c0,3.1,0.4,6,1.3,8.6c0.8,2.6,2.1,4.9,3.8,7v-0.1c3.7,4.5,8.5,6.7,14.3,6.7h0.1l0.2-0.1c4.6,0,8.7-1.2,12.1-3.6V27.5h-0.2
		c-0.5,0.2-0.9,0.3-1.3,0.3c-0.6,0.3-2.1,0.4-4.7,0.4l-0.1,0.1h-0.3c-1.3,0-2.5,0-3.7-0.1c-1.1-0.1-2.2-0.2-3.2-0.3
		c-0.3-0.1-0.7-0.1-1.2-0.2c-0.6-0.1-1.3-0.2-2.2-0.3c-0.7-0.1-1.5-0.3-2.4-0.4c-0.9-0.2-2-0.3-3.1-0.5c-3.5-0.6-6.4-1-8.9-1H254
		c-0.3,0.1-1,0.1-2.2,0.1c-2.9,0.3-5.4,1.8-7.3,4.5v-1.3c0-1.5,0.6-3.2,1.8-5.2c3.3-5.2,8.4-7.9,15.3-7.9l0.5-0.2
		c2.1,0.1,5.7,0.5,10.6,1.2l5.4,1c0.3,0.1,0.8,0.3,1.4,0.4s1.4,0.3,2.4,0.4l2.1,0.2l2.1,0.3h2.4l0.1-0.1h1.4l0.1,0.1
		c2.7,0,5-0.6,6.8-1.9L297.3,17.3z M274.8,63c-2.4,2.2-5,3.3-7.6,3.3h-0.6v-0.1h-0.9l0.7-0.8v-0.3l0.2-0.1c0-0.1,0-0.2,0.1-0.3
		l0.3-0.3c0-0.3,0.2-0.6,0.5-0.9v-0.3l0.1-0.1V63l0.1-0.1V38.6l-2.8,1.4v-4l11.7-6.8h2.1v26.5C278.6,58.2,277.3,60.6,274.8,63z"/>
	<path class="st0" d="M339,38.3c0,0.1-0.1,0.3-0.1,0.5c-0.1,0.2-0.1,0.4-0.1,0.7c0,0.2,0,0.5-0.1,0.8c-0.7,2.5-1.9,4.2-3.4,5.1
		l0.1,25.4v-0.1c0.5,1.5,1.2,2.8,2.2,4v-0.1l0.2,0.2v0.1l0.2,0.2l-0.5,0.7c-1.2-0.7-2.9-1-5.1-1c-3.4,0-5.2,0.6-5.4,1.7l0.7,0.7H327
		c0.1,0.2,0.4,0.5,0.7,0.8c0.4,0.3,0.8,0.7,1.3,1.2c3.2,2.6,4.8,5.2,4.8,7.9c0,2.5-1.2,4.4-3.5,5.9c-0.9,0.6-1.6,0.9-2,0.9l-0.2,0.1
		h-0.6l-0.1,0.1H327c-2,0-3.3-0.9-4.1-2.8c2.1-0.8,3.1-1.9,3.1-3.3c0-1.2-0.4-2.2-1.1-3c-0.2-0.1-0.3-0.4-0.4-1l0.1,0.1
		c-1.2-1.8-1.9-3.8-1.9-6c0-1.5,0.4-2.5,1.2-2.9v-0.1c0.7-0.7,1.1-1.5,1.1-2.3V47.2c-0.7,0-1.6-0.4-2.7-1.2
		c-1.3-0.8-2.1-1.4-2.3-1.7l-0.1-0.1l-4.3,3.2v20.2c0.3,0.1,0.6,0.2,0.9,0.3c0.3,0.1,0.7,0.3,1.2,0.4c1,0.5,1.9,1.1,2.7,1.7
		c0.7,0.6,1.4,1.2,1.9,1.9l-9,8.2c-3.7-3.5-7-5.3-10-5.3h-0.5c-0.1,0-0.3,0-0.6,0.1c-0.3,0.1-0.7,0.2-1.2,0.5
		c-0.3,0.1-0.7,0.2-1.1,0.3c-0.4,0.1-0.7,0.1-0.8,0.1c0.9-3.6,3-6.1,6.2-7.4v-41c0-1.2-0.6-3.2-1.9-5.9c1.9,0,3.8-0.4,5.7-1.2
		c1.9-0.8,3.9-1.9,6-3.4c0.1-0.1,0.8-0.7,2.1-1.8l-0.1,0.1l0.8,0.1c-0.1,0.4-0.3,0.8-0.4,1.3c-0.2,0.5-0.3,0.8-0.3,1l-0.3,0.6
		c-0.3,0.5-0.5,1.5-0.8,2.9c-0.1,0.1-0.1,0.1-0.1,0.2v0.1c-0.1,0.7-0.2,1.3-0.3,1.8c-0.1,0.5-0.1,0.8-0.1,1v18.4l12.3-9.4
		c1.8,3.6,3.6,5.4,5.6,5.4c0.1,0.1,0.3,0.1,0.6,0.1c0.8,0,2.5-0.7,4.9-2.2v1.4C339,38,339,38.2,339,38.3z"/>
	<path class="st0" d="M371.9,50.6c-0.8,0.4-2.3,1.3-4.6,2.6c-2.3,1.3-5.5,3.2-9.4,5.5c-0.6,0.3-1.2,0.8-2,1.3v7.3
		c2,0.3,3.9,0.7,5.6,1.3c1.7,0.5,3.3,1.1,4.8,1.9l2.3-2.4l2.4,2.2l-8.9,9.8l-1-0.5c-1.4-0.7-2.7-1.4-4-2s-2.8-1.1-4.5-1.4
		c-2.9-0.6-5.3-0.9-7.4-0.9c-0.8,0-1.6,0-2.3,0.1c-0.8,0.1-1.6,0.2-2.3,0.3c0.1-0.3,0.3-0.6,0.4-0.8c0.1-0.2,0.3-0.4,0.4-0.5v0.1
		c0.5-0.7,0.8-1.3,1.1-1.8c0.3-0.5,0.5-0.7,0.5-0.8c0.5-0.6,1.3-1.4,2.6-2.3V45.9c0-1-0.5-2.6-1.6-4.9v-1.4l0.9,0.9h0.6l0.1,0.1h0.3
		l0.3,0.1h0.4c5.1,0,10.9-2.1,17.4-6.4c0.3,1.2,0.7,2.4,1.3,3.8c0.5,1.4,1.2,2.9,2.2,4.6c0.8,1.5,1.6,2.9,2.4,4.2
		c0.7,1.3,1.4,2.4,2.1,3.3L371.9,50.6z M357.7,45.6c-0.4-0.9-0.8-1.8-1.1-2.7l-0.8,0.2v12.5l5.3-3.4c-0.3-0.4-0.6-0.9-0.9-1.5
		c-0.4-0.6-0.8-1.4-1.2-2.4C358.5,47.4,358.1,46.5,357.7,45.6z"/>
</g>
<g>
	<g>
		<path class="st0" d="M418.9,25.3c-1.5,2.5-2.1,5.7-1.9,9.1l-0.3,25.9c-1.9,8.8-10.4,11.8-17.1,13.5c5.5-3.4,3.4-11.2,3.9-17.5
			c-3.2,0.2-8-1.3-9.2,3l-0.3,2.5c-1.5-4.6-2.2-11.6,0.9-15.6c2.2-2.5,5.3-3,8.5-3c0.2-5.7,2.7-11,7.3-14.1
			C413.3,27.4,416,26.1,418.9,25.3"/>
	</g>
	<g>
		<g>
			<path class="st0" d="M443.9,64.9v1.6C443.9,66,444,65.4,443.9,64.9z"/>
		</g>
		<g>
			<path class="st0" d="M414.9,23.7c4.6,0.4,8.9-0.5,12.7-3.7c2-1.4,3.8-3.3,4.2-5.8c-2.8,1.8-5.7,1.9-8.8,1c-3.7-1-7.3-2.4-11.1-3
				c-6.7-1-16.1,1.8-16.9,9.8c2.9-2.3,6-1.9,9.3-0.9C407.7,22.4,411.3,23.4,414.9,23.7z"/>
		</g>
		<g>
			<path class="st0" d="M443.9,67.4v-0.8v0.1C443.9,66.9,443.9,67.2,443.9,67.4z"/>
		</g>
		<g>
			<g>
				<path class="st0" d="M455.1,74.9c-1-1.9-0.4-15.6-0.4-19.7c0-2.3,0-4.6,0-6.9c0-5.1-6.8-5.9-10.6-5.9c5.1-3.7,9.3-9.7,10.2-16
					c0.8-3.1-0.3-7.3-1.9-9.9c-0.9-1.5-2.2-2.7-3.6-3.7c-0.6-0.4-3-2.1-3.6-1.7C438,16,430.8,21,423.6,25.9
					c-2.4,1.6-2.8,3.7-2.8,6.3c0,4.4,0,8.8,0,13.2c0,4.7,0,9.4,0,14.1c0,2.7,0.2,5.6-1.6,7.8c4.5-0.3,9.4-3.8,11.3-7.9
					c0.6-1.4,0.6-2.8,0.6-4.3c0-4.9,0-9.9,0-14.8s0-9.9,0-14.8c0-0.9-0.3-1.5,0.5-2.1c2-1.4,4-2.8,6.1-4.1c1.3-0.9,4.2,2.3,5,3.3
					c2,2.5,2.8,5.7,2.9,8.9c0.1,5-2.3,10.2-7.1,11.9v2.2c0.1,0,1.3,0,1.8,0c0.6,0,3,0.8,3.5,1.8s0.2,25.7,0.2,28.4
					c-1.6-1.2-8.3-5-8.3-5c-11.5-5.2-26.5,1-32.3,11.9c5.1-2.8,10.6-3.8,16.4-3.8c4.7,0,8.7,1.7,12.8,4c0.7,0.4,0.9,0.9,1.6,0.3
					c0.6-0.5,7.8-5.5,21.8-7C455.6,75.7,455.3,75.3,455.1,74.9z"/>
			</g>
		</g>
	</g>
	<g>
		<g>
			<rect x="437.5" y="41.2" class="st0" width="1.8" height="32.8"/>
		</g>
	</g>
</g>
<path class="st0" d="M493.5,78.3c-5.2-1.3-8.2-4.1-8.9-8.4c-0.1,0.1-0.2,0.1-0.3,0.2c0,0.1-0.1,0.1-0.2,0.2c-0.7,0.5-1.6,1-2.5,1.7
	s-2.1,1.5-3.4,2.4c-0.6,0.5-1.2,1-1.9,1.6c-0.7,0.6-1.5,1.4-2.5,2.4c-4.2-3.9-7.7-5.8-10.5-5.8c-1.3,0-2.4,0.3-3.3,1
	c0.6-3.4,2.1-5.7,4.4-6.9V45.3c-0.3-0.9-1-1.6-2.1-2.2l0.1,0.1c-0.3-0.1-0.7-0.2-1.2-0.3s-0.9-0.2-1.2-0.3c-0.1-0.1-0.3-0.1-0.4-0.1
	h-0.9v-0.7l9.7-10c4.5,2.3,6.8,5.4,6.8,9.1v24.5c0.4,0.3,1.4,0.7,3.1,1.2c-0.1,0-0.2,0-0.4-0.1c-0.2-0.1-0.2-0.1-0.1,0
	c0.6,0.4,1.1,0.7,1.5,1.1c0.4,0.3,0.8,0.5,1.1,0.7l0.2-0.2l0.2-0.1c0.1-0.1,0.2-0.1,0.3-0.2c0-0.1,0.1-0.1,0.3-0.2v0.1
	c0.3-0.1,0.5-0.3,0.8-0.6c0.3-0.3,0.7-0.6,1.2-1c0.2,0,0.4-0.1,0.6-0.3l0.6-0.3l-0.2-21.1h-0.1l-0.2-0.1l-0.3-0.1
	c-0.1-0.1-0.3-0.3-0.4-0.5c-0.2-0.2-0.4-0.4-0.7-0.7l-2,1l-1.9-2.8c2.1-0.7,5.7-3.5,10.8-8.6c3.4,3.6,5.8,5.4,7.3,5.4
	c0.6,0,1.1-0.1,1.5-0.2l0.2-0.2l0.1-0.1h0.2l0.1-0.1h0.2l0.1-0.1h0.7c0,4-1.7,6.5-5,7.5v19.6c0,3.4,1.6,5.1,4.8,5.1h0.2l0.2-0.1
	c0.5,0,1.3-0.2,2.3-0.6l0.4,0.7L493.5,78.3z"/>
<path class="st0" d="M519.9,78.4c-3.6-3.4-7.1-5.1-10.4-5.1c-1.6,0-2.8,0.6-3.6,1.8v-1.4c0-0.3,0.3-1.1,0.9-2.4
	c0.9-2.1,2.2-3.6,3.9-4.5V41.7h-1.8c-0.5,0.3-1,0.5-1.6,0.6c-0.1,0.1-0.4,0.2-0.9,0.3l-0.2,0.2H506l-1.1,0.6c0-0.3,0-0.5,0-0.7
	c0-0.3,0-0.5,0.1-0.6v-0.3l0.1-0.2c0-0.3,0-0.5,0.1-0.6v-0.8c0-0.2,0-0.4,0-0.6c0-0.2,0.1-0.4,0.2-0.7v-0.6l-0.1-0.3v-1
	c-0.3-0.7-0.4-2-0.4-3.7c0.9,0.5,1.6,0.8,2.2,1s1.1,0.3,1.4,0.4c0.1-0.1,0.6-0.1,1.4-0.1h0.8V30l-0.1-0.2v-1
	c-0.1-0.2-0.1-0.4-0.2-0.5s-0.1-0.3-0.1-0.4c0-0.2-0.1-0.3-0.1-0.4v-0.1c-0.1-0.1-0.2-0.4-0.2-0.9l0.7-0.2l0.1,0.2h0.5v0.1
	c3.9,0,7.5-2.1,11-6.4v1.4l-0.1,0.1c-0.1,0.1-0.1,0.3-0.1,0.6c0,0.3-0.1,0.6-0.3,1c0-0.1,0-0.1,0,0.1s0,0.4-0.1,0.5
	c-0.3,1.1-0.4,2-0.4,2.5v8.3h3.2l0.2,0.1c1.1,0,2.4-0.5,3.7-1.4c0,0.1,0,0.3,0,0.6s0,0.5,0,0.5c-0.1,0.1-0.1,0.3-0.1,0.6
	c-0.2,0.4-0.3,1.3-0.3,2.6h0.1c0,1.5,0.2,3.4,0.6,5.8l-1.2-0.6l-0.1-0.1h-0.1c-0.7-0.3-1.6-0.5-2.5-0.6c-1-0.2-2.1-0.3-3.4-0.4v23.9
	c0.5,0.5,1,0.7,1.7,0.7c0.4,0.1,0.6,0.2,0.7,0.3c0.2,0.2,0.4,0.3,0.6,0.3c0.1,0.1,0.1,0.1,0.2,0.1c0.1,0,0.2,0.1,0.3,0.2h-0.1
	c0.2,0.1,0.5,0.3,0.8,0.5s0.7,0.5,1.1,0.7l1-1.1l2.1,2.4L519.9,78.4z"/>
<path class="st0" d="M546.4,78.4c-3.6-3.4-7.1-5.1-10.4-5.1c-1.6,0-2.8,0.6-3.6,1.8v-1.4c0-0.3,0.3-1.1,0.9-2.4
	c0.9-2.1,2.2-3.6,3.9-4.5V41.7h-1.8c-0.5,0.3-1,0.5-1.6,0.6c-0.1,0.1-0.4,0.2-0.9,0.3l-0.2,0.2h-0.2l-1.1,0.6c0-0.3,0-0.5,0-0.7
	c0-0.3,0-0.5,0.1-0.6v-0.3l0.1-0.2c0-0.3,0-0.5,0.1-0.6v-0.8c0-0.2,0-0.4,0-0.6c0-0.2,0.1-0.4,0.2-0.7v-0.6l-0.1-0.3v-1
	c-0.3-0.7-0.4-2-0.4-3.7c0.9,0.5,1.6,0.8,2.2,1c0.6,0.2,1.1,0.3,1.4,0.4c0.1-0.1,0.6-0.1,1.4-0.1h0.8V30l-0.1-0.2v-1
	c-0.1-0.2-0.1-0.4-0.2-0.5c-0.1-0.1-0.1-0.3-0.1-0.4c0-0.2-0.1-0.3-0.1-0.4v-0.1c-0.1-0.1-0.2-0.4-0.2-0.9l0.7-0.2l0.1,0.2h0.5v0.1
	c3.9,0,7.5-2.1,11-6.4v1.4l-0.1,0.1c-0.1,0.1-0.1,0.3-0.1,0.6c0,0.3-0.1,0.6-0.3,1c0-0.1,0-0.1,0,0.1s0,0.4-0.1,0.5
	c-0.3,1.1-0.4,2-0.4,2.5v8.3h3.2l0.2,0.1c1.1,0,2.4-0.5,3.7-1.4c0,0.1,0,0.3,0,0.6s0,0.5,0,0.5c-0.1,0.1-0.1,0.3-0.1,0.6
	c-0.2,0.4-0.3,1.3-0.3,2.6h0.1c0,1.5,0.2,3.4,0.6,5.8l-1.2-0.6l-0.1-0.1h-0.1c-0.7-0.3-1.6-0.5-2.5-0.6c-1-0.2-2.1-0.3-3.4-0.4v23.9
	c0.5,0.5,1,0.7,1.7,0.7c0.4,0.1,0.6,0.2,0.7,0.3c0.2,0.2,0.4,0.3,0.6,0.3c0.1,0.1,0.1,0.1,0.2,0.1c0.1,0,0.2,0.1,0.3,0.2h-0.1
	c0.2,0.1,0.5,0.3,0.8,0.5s0.7,0.5,1.1,0.7l1-1.1l2.1,2.4L546.4,78.4z"/>
<path class="st0" d="M597.5,37.6v0.5l-0.1,0.2c0,0.4-0.1,0.8-0.4,1.3s-0.6,1-1,1.6c-0.5,0.5-0.9,1-1.3,1.4c-0.4,0.4-0.7,0.7-1.1,0.8
	v23c0,2.3,0.9,4.2,2.7,5.9c-2.5-0.5-4.6-0.8-6.1-0.8c-7.7,0-13.9,2.3-18.7,6.9c-3.6-3.7-6.8-5.6-9.7-5.6c-0.5,0-1.2,0.1-2,0.3
	l-2,0.3c0.3-2.9,1.9-5,4.8-6.4l-0.1-26.1V41l-0.3-0.9c-0.1,0-0.1-0.1-0.1-0.2l-0.2-0.2v-0.2l-0.1-0.1l-0.2-0.4
	c-0.1-0.1-0.2-0.3-0.2-0.5c0-0.1,0-0.1-0.1-0.1v-0.2v0.3l-0.1-0.2v-1.1c0.8,0.3,1.7,0.5,2.6,0.6c0.9,0.1,2,0.2,3.1,0.2
	c7.1,0,13.4-2.3,19.1-7c2.2,3.3,4.2,5.2,6,5.9c1,0.3,1.8,0.5,2.3,0.5c0.3,0,0.7-0.1,1.2-0.3s1.1-0.5,2-1.1v1.3L597.5,37.6z
	 M582.9,68.3L582.9,68.3l0.1-24.2c-2.3-0.1-4.2-1.3-5.8-3.8c-1.1,0.7-2.4,1-3.8,1v24.1c0.5,0.3,1.2,0.5,1.9,0.5l0.4,0.2h-0.1
	c0.2,0.1,0.5,0.2,1,0.3c0.7,0.3,1.9,1.2,3.6,2.8l1.2-0.6C581.8,68.6,582.3,68.5,582.9,68.3z"/>
<path class="st0" d="M633.9,78.5c-0.9-0.1-1.9-0.3-2.8-0.7c-0.9-0.4-1.8-0.9-2.7-1.6c-1.6-1.3-2.4-2.8-2.4-4.7V45.3
	c-0.3,0-0.5,0-0.6-0.1h-0.2l-0.1-0.1l-0.4-0.2h0.1c-1.1-0.3-1.9-0.6-2.6-1.1c-0.7-0.5-1.3-1.1-1.8-1.8l-4.1,3.3v21
	c0.8,0.3,1.5,0.7,2.2,1s1.2,0.7,1.6,1c0.7,0.5,1.4,1,2,1.5c0.6,0.6,1.1,1.1,1.5,1.8l-9.3,6.7c-3.6-3.4-7.3-5.1-11-5.1H603l-0.1,0.1
	h-0.5l-0.1,0.1h-0.4l-0.1,0.1h-1c0.5-2.6,2.1-4.7,4.7-6.2V44.8c-1.2-2-2.9-3-5-3l-0.2-0.1h-0.5V41L610,30.8c1.1,0.9,2,1.8,2.8,2.5
	c0.8,0.8,1.4,1.5,1.8,2.3c1.1,1.7,1.6,3.4,1.7,5.3l11.8-9.9c2.8,3.9,5,5.8,6.5,5.8c0.7,0,2.4-0.6,5.1-1.7v1.4l-0.1,0.2v1l-0.1,0.2
	c0,1.6-0.9,3.3-2.7,5.1v23.3c0,1.3,1,2,3,2h0.4l0.1-0.1h0.8l0.1-0.1h1.3L633.9,78.5z"/>
<path class="st0" d="M703.4,39.7l-0.2,0.2l-0.1,0.2c-0.1,0.1-0.3,0.3-0.4,0.4c-0.1,0.1-0.2,0.3-0.4,0.4v0.2
	c-0.4,0.6-0.7,1.1-0.7,1.5v30.1c0,0.1,0,0.2,0.1,0.3v0.2l0.1,0.3v-0.1c0.1,0.1,0.1,0.1,0.1,0.2l0.1,0.5l0.1,0.1c0,0.3,0,0.5,0.1,0.5
	l0.1,0.2V75l0.1,0.1c0,0.1,0,0.3,0.1,0.4l0.7,1.5c-2.2-1.3-4.8-2-7.7-2c-6,0-10.8,2.3-14.5,6.9l-0.9-0.8c-0.1-0.1-0.3-0.3-0.4-0.4
	c-0.1-0.1-0.2-0.3-0.4-0.4c-2.9-3.4-6.3-5.1-10.2-5.1c-2.3,0-4.4,0.7-6.2,2c0.6-3.8,2.5-6.5,5.7-8.1V44c0-1.1-0.7-2.7-2.1-4.6h1.3
	l0.2,0.1h1.3l0.2,0.1h0.3c5.2,0,9.6-1.2,13.1-3.7l-4.4-4.8c-1.2-1.3-2.4-2.5-3.7-3.7s-2.5-2.3-3.8-3.3c-0.3-0.2-0.7-0.5-1.2-0.9
	s-1.1-0.9-1.7-1.4c-0.9-0.8-2.5-2.5-4.7-5.1v-1.5c0.6,0.6,1.3,0.9,1.9,0.9c0.1,0.1,0.5,0.1,1.2,0.1c1.8,0,3.7-0.2,5.5-0.7
	s3.6-1.2,5.4-2.1c0.5,1.5,1.4,3.1,2.7,5v-0.1l2.6,2.6l11,10.9c0.1,0.3,0.2,0.4,0.2,0.3l2.4,2.5c0.3,0.3,0.6,0.6,0.9,0.9
	c0.4,0.4,0.8,0.7,1.3,1.2c0.1,0.1,0.3,0.3,0.5,0.4c0.2,0.1,0.3,0.3,0.5,0.4h-0.1c1.1,1.1,2.2,1.6,3.4,1.6l0.8-1.1v1.7H703.4z
	 M690,71.9V43l-4.2-4.3c-1.9,1.8-4,3-6.3,3.5v25.7l0.7,0.2c0.2,0.1,0.6,0.2,1.1,0.3c0.5,0.1,1.2,0.3,2.1,0.6c2,1,3.7,2.2,5.1,3.6
	l0.2-0.2h0.1l0.2-0.2h0.3l0.1-0.1h0.5L690,71.9z M702.3,41.2V41v0.1C702.2,41.2,702.2,41.2,702.3,41.2z M702.4,41.2
	c0-0.1,0.1-0.2,0.2-0.3l-0.2,0.4V41.2z"/>
<path class="st0" d="M746.5,36.9v0.5l-0.1,0.2c0,0.4-0.1,0.9-0.4,1.3c-0.3,0.5-0.6,1-1.1,1.7c-0.5,0.6-0.9,1.1-1.3,1.5
	s-0.8,0.7-1.1,0.8v24.2c0,2.4,0.9,4.5,2.8,6.2c-2.7-0.6-4.8-0.8-6.4-0.8c-8.1,0-14.7,2.4-19.7,7.3C715.4,76,712,74,709,74
	c-0.6,0-1.3,0.1-2.1,0.3l-2.1,0.3c0.3-3,2-5.3,5.1-6.7l-0.1-27.5v0.1l-0.3-0.9c-0.1,0-0.1-0.1-0.1-0.2l-0.2-0.2V39l-0.1-0.1
	l-0.2-0.4c-0.1-0.1-0.2-0.3-0.2-0.5c0-0.1,0-0.1-0.1-0.1v-0.2V38l-0.1-0.2v-1.2c0.8,0.3,1.8,0.5,2.7,0.6c1,0.1,2.1,0.2,3.3,0.2
	c7.4,0,14.2-2.5,20.1-7.4c2.3,3.4,4.4,5.5,6.3,6.2c1.1,0.4,1.9,0.5,2.4,0.5c0.3,0,0.8-0.1,1.3-0.3s1.2-0.5,2.1-1.1v1.4L746.5,36.9z
	 M731.1,69.3L731.1,69.3l0.1-25.5c-2.4-0.1-4.4-1.4-6.1-4c-1.2,0.7-2.5,1.1-4,1.1v25.4c0.6,0.4,1.2,0.5,2,0.5l0.4,0.2h-0.1
	c0.2,0.1,0.6,0.2,1.1,0.3c0.7,0.3,2,1.3,3.8,3l1.3-0.6C729.9,69.6,730.5,69.5,731.1,69.3z"/>
<path class="st0" d="M764.9,82.5c-3.8-3.6-7.4-5.4-11-5.4c-1.7,0-2.9,0.6-3.8,1.9v-1.5c0-0.3,0.3-1.1,0.9-2.5c1-2.2,2.4-3.8,4.1-4.7
	V43.8h-1.9c-0.5,0.3-1.1,0.5-1.7,0.6c-0.1,0.1-0.4,0.2-0.9,0.3l-0.2,0.2h-0.2l-1.2,0.6c0-0.3,0-0.5,0-0.7c0-0.3,0-0.5,0.1-0.6V44
	l0.1-0.2c0-0.3,0-0.5,0.1-0.6v-0.8c0-0.2,0-0.4,0.1-0.6c0-0.2,0.1-0.5,0.2-0.7v-0.6l-0.1-0.3v-1.1c-0.3-0.8-0.4-2.1-0.4-3.9
	c0.9,0.5,1.7,0.8,2.3,1.1c0.6,0.2,1.1,0.4,1.5,0.4c0.1-0.1,0.6-0.1,1.5-0.1h0.8v-4.8l-0.1-0.2v-1.1c-0.1-0.2-0.1-0.4-0.2-0.5
	c-0.1-0.1-0.1-0.3-0.2-0.5c0-0.2-0.1-0.3-0.2-0.5v-0.1c-0.1-0.1-0.2-0.5-0.2-0.9l0.7-0.2l0.1,0.2h0.5v0.1c4.1,0,7.9-2.2,11.6-6.7
	v1.5l-0.1,0.1c-0.1,0.1-0.1,0.4-0.2,0.6c0,0.3-0.1,0.6-0.3,1.1c0-0.1,0-0.1,0,0.1s0,0.4-0.1,0.5c-0.3,1.2-0.4,2.1-0.4,2.6v8.7h3.4
	l0.2,0.1c1.2,0,2.5-0.5,3.9-1.5c0,0.1,0,0.3-0.1,0.6c0,0.3-0.1,0.5-0.1,0.6c-0.1,0.1-0.1,0.4-0.1,0.6c-0.2,0.4-0.3,1.3-0.3,2.7h0.1
	c0,1.5,0.2,3.6,0.6,6.1l-1.3-0.6l-0.1-0.1h-0.1c-0.8-0.3-1.7-0.5-2.7-0.7s-2.2-0.3-3.5-0.4v25c0.5,0.5,1.1,0.7,1.8,0.7
	c0.4,0.1,0.7,0.2,0.7,0.3c0.2,0.2,0.4,0.3,0.6,0.3c0.1,0.1,0.2,0.1,0.3,0.2c0.1,0,0.2,0.1,0.3,0.2h-0.1c0.2,0.1,0.5,0.3,0.8,0.6
	c0.3,0.2,0.7,0.5,1.2,0.8l1.1-1.2l2.2,2.5L764.9,82.5z"/>
<path class="st0" d="M827.7,35.1c-0.1,2.4-1.1,4.4-3,6.1c-1.8,1.6-4,2.4-6.4,2.4c-3.2,0-5.4-1-6.7-2.9v24.1c0.6,0.3,1.4,0.5,2.4,0.5
	c0.1,0.1,0.4,0.2,1,0.4c0.6,0.2,1.5,0.5,2.6,0.9c0.7,0.3,1.3,0.6,1.8,0.9s1,0.7,1.3,1.1l2.7-3.2l2.5,2L816.5,79c-4.8-4-10-6-15.8-6
	c-1.9,0-3.5,0.6-4.6,1.9c0.7-3.3,2.2-5.8,4.7-7.5V43.6c0-0.2,0-0.4-0.1-0.7c0-0.3-0.1-0.6-0.1-1c-0.2-0.4-0.3-1-0.3-1.8
	c-0.3-0.8-0.5-1.4-0.5-1.8c-0.1-0.1-0.2-0.4-0.3-1V36l0.9,0.9c0.1,0.1,0.8,0.2,2,0.2c2.6,0,5-0.6,7.5-1.8c2.4-1.2,4.4-2.8,5.9-4.9
	c3,3.9,5.7,5.8,8.2,5.8c0.5,0,1.5-0.5,3-1.5L827.7,35.1z"/>
<path class="st0" d="M868.8,35.3v0.5l-0.1,0.2c0,0.4-0.1,0.8-0.4,1.3c-0.3,0.4-0.6,1-1,1.7c-0.5,0.6-0.9,1-1.3,1.5
	c-0.4,0.4-0.7,0.7-1.1,0.8v23.9c0,2.4,0.9,4.4,2.8,6.1c-2.6-0.6-4.7-0.8-6.3-0.8c-8,0-14.4,2.4-19.4,7.2c-3.7-3.9-7.1-5.8-10.1-5.8
	c-0.6,0-1.2,0.1-2.1,0.3l-2.1,0.3c0.3-3,1.9-5.2,5-6.6l-0.1-27.1v0.1l-0.3-0.9c-0.1,0-0.1-0.1-0.1-0.2l-0.2-0.2v-0.2l-0.1-0.1
	l-0.2-0.4c-0.1-0.1-0.2-0.3-0.2-0.5c0-0.1,0-0.1-0.1-0.1v-0.2v0.3l-0.1-0.2v-1.1c0.8,0.3,1.7,0.5,2.7,0.6s2,0.2,3.2,0.2
	c7.3,0,13.9-2.4,19.8-7.3c2.3,3.4,4.4,5.4,6.2,6.1c1,0.3,1.8,0.5,2.4,0.5c0.3,0,0.8-0.1,1.2-0.3c0.5-0.2,1.2-0.5,2.1-1.1v1.3
	L868.8,35.3z M853.7,67.2L853.7,67.2l0.1-25.2c-2.4-0.1-4.4-1.4-6-3.9c-1.2,0.7-2.5,1-3.9,1v25c0.6,0.3,1.2,0.5,2,0.5l0.4,0.2h-0.1
	c0.2,0.1,0.6,0.2,1,0.3c0.7,0.3,1.9,1.2,3.7,2.9l1.2-0.6C852.5,67.5,853.1,67.4,853.7,67.2z"/>
<path class="st0" d="M923.2,79.6h-0.6c-0.8,0-1.7-0.2-2.5-0.6s-1.6-0.9-2.2-1.5c-0.6-0.6-1.1-1.3-1.6-2.1c-0.4-0.8-0.6-1.6-0.6-2.3
	V45.2h-0.2c0.1,0.1,0,0.1-0.1,0s-0.3-0.1-0.4-0.2c-0.1-0.1-0.3-0.1-0.5-0.2c-0.2-0.1-0.3-0.1-0.5-0.2c-1.5-0.6-2.6-1.5-3.5-2.7l-4,3
	v22.2c0.5,0.2,1.2,0.7,2.2,1.3c1,0.7,2.4,1.6,4.2,2.8l-8.9,8.6c-4.1-3.7-7.5-5.5-10.3-5.5c-1.2,0-2.4,0.4-3.6,1.2
	c0.7-3,2.5-5.5,5.5-7.7V46c0-2.1-1-3.9-2.9-5.2L886,46v21.1c0.3,0.1,0.6,0.3,0.9,0.4c0.3,0.1,0.6,0.2,1,0.4c1,0.4,1.8,0.9,2.4,1.4
	c0.6,0.5,1.1,1.1,1.4,1.7l-9.2,8.9c-2.6-3.7-5.6-5.5-9-5.5c-1.6,0-2.9,0.3-3.9,0.9c0.3-1.4,1.1-2.8,2.1-4.2c1.1-1.4,2.2-2.4,3.5-3
	V45.6c0-1.8-2-3.2-6.1-4.2v-0.7l10-10.3c4.3,1.9,7,5.2,8,10l12.5-10c4.1,2.4,6.6,5.4,7.5,9.2L918,31c2.9,3.7,5.2,5.6,7,5.6
	c1.6,0,3.3-0.6,5.2-1.9v1.8c0,0.1,0,0.2-0.1,0.3c0,0.1-0.1,0.2-0.1,0.4s0,0.3-0.1,0.5c0,0.2-0.1,0.4-0.1,0.6c-0.1,1-0.4,1.8-0.9,2.5
	s-1.1,1.5-1.9,2.2v23.9c0,0.7,0.3,1.3,1,1.9s1.3,0.9,2,0.9c0.4,0,1.1-0.1,2-0.4h0l0.2-0.1h0.2l0.2-0.2h1.3L923.2,79.6z"/>
</svg>
